<svg id="Layer_1" data-name="Layer 1" xmlns="http://www.w3.org/2000/svg" viewBox="0 0 700 50"><title>border</title><path d="M29.11,36.35a13.25,13.25,0,0,1-8.87-3.59,11.33,11.33,0,0,1-3.85-8.29,11.18,11.18,0,0,1,2.93-8.11,9.87,9.87,0,0,1,7.09-2.74,7.12,7.12,0,0,1,5.11,1.89,6,6,0,0,1,1.77,4.3c0,3.1-1.3,4.88-3.56,4.89a2.48,2.48,0,0,1-2.15-1.09,3.74,3.74,0,0,1,.18-3.5l.33-.71L27.15,19a4,4,0,0,0-4.31,1,5.31,5.31,0,0,0-.94,5.5v0a8.21,8.21,0,0,0,7.82,5.26,8.93,8.93,0,0,0,6.86-3.11,11.79,11.79,0,0,0,2.58-7.81,12,12,0,0,0-3.59-8.66A13,13,0,0,0,26.4,7.58,15.64,15.64,0,0,0,15.19,12,17.12,17.12,0,0,0,10.5,24.47a17.35,17.35,0,0,0,5.79,12.77A19.12,19.12,0,0,0,29.1,42.39l656.9,0v-6Z"/></svg>