<svg id="Layer_1" data-name="Layer 1" xmlns="http://www.w3.org/2000/svg" viewBox="0 0 1000 25"><defs><style>.cls-1{fill:#191919;}</style></defs><title>border-wave</title><path class="cls-1" d="M966.67,12C953,12,947,3.57,933.33,3.57S913.63,12,900,12s-19.7-8.44-33.33-8.44S847,12,833.33,12,813.63,3.57,800,3.57,780.3,12,766.67,12,747,3.57,733.33,3.57,713.63,12,700,12s-19.7-8.44-33.33-8.44S647,12,633.33,12,613.63,3.57,600,3.57,580.3,12,566.67,12,547,3.57,533.33,3.57,513.63,12,500,12s-19.7-8.44-33.33-8.44S447,12,433.33,12,413.63,3.57,400,3.57,380.3,12,366.67,12,347,3.57,333.33,3.57,313.63,12,300,12s-19.7-8.44-33.33-8.44S247,12,233.33,12,213.63,3.57,200,3.57,180.3,12,166.67,12,147,3.57,133.33,3.57,113.63,12,100,12,80.3,3.57,66.67,3.57,47,12,33.33,12,13.63,3.57,0,3.57V25H1000V3.57C986.37,3.57,980.3,12,966.67,12Z"/></svg>