<svg id="Layer_1" data-name="Layer 1" xmlns="http://www.w3.org/2000/svg" viewBox="0 0 260 90">
  <defs>
    <style>
      .cls-1 {
        fill: rgb(25, 25, 25);
      }
    </style>
  </defs>
  <title>logo-logotype</title><path
    class="cls-1"
    d="M235.72,70.87H24.28V19.13H235.72ZM28.88,66.27H231.12V23.73H28.88ZM53.27,53.84V45.52l-2.46,4.29H48.07l-2.46-4.29v8.32H41.34V36.48h4.19l3.9,7.66,3.9-7.66h4.19V53.84Zm17.86,0-.8-2.58H65l-.85,2.58H59.66L66,36.48h3.29l6.32,17.36ZM67.74,43.06l-1.56,4.63h3Zm22,7.85a6.12,6.12,0,0,1-5.63,2.93H77.7V36.48h6.44a6.12,6.12,0,0,1,5.63,2.93c.85,1.39.85,2.76.85,5.75S90.63,49.52,89.77,50.91ZM85.9,41.26a2.22,2.22,0,0,0-2-1H82V50h1.88a2.22,2.22,0,0,0,2-1c.34-.49.46-1,.46-3.9S86.24,41.74,85.9,41.26Zm7.64,12.58V36.48h11.8v3.8H97.81v2.9h6.44V47H97.81v3h7.53v3.8Zm21.21,0V36.48H119V53.84Zm17.44,0-5.56-8.73v8.73h-4.27V36.48h3.73l5.56,8.73V36.48h4.27V53.84Zm21.19,0h-7.56V36.48H153c3.61,0,5.54,2,5.54,5a4.18,4.18,0,0,1-1.9,3.44,4,4,0,0,1,2.15,3.78C158.8,52,156.48,53.84,153.39,53.84Zm-.63-13.53h-2.66v2.83h2.66a1.42,1.42,0,1,0,0-2.83ZM153,47h-2.88v3H153a1.43,1.43,0,0,0,1.56-1.54A1.42,1.42,0,0,0,153,47Zm18.44,6.88-.8-2.58h-5.34l-.85,2.58H160l6.32-17.36h3.29l6.32,17.36ZM168,43.06l-1.56,4.63h3ZM183,54c-2.66,0-4.83-.49-6.58-2.29L179.17,49A5.65,5.65,0,0,0,183,50.18c1.68,0,2.49-.56,2.49-1.56a1.45,1.45,0,0,0-.34-1,1.94,1.94,0,0,0-1.15-.46l-2.1-.29a5.87,5.87,0,0,1-3.49-1.54,4.81,4.81,0,0,1-1.19-3.49c0-3.17,2.39-5.49,6.34-5.49a7.71,7.71,0,0,1,5.85,2.07l-2.68,2.68a4.12,4.12,0,0,0-3.29-1c-1.49,0-2.1.85-2.1,1.61a1.14,1.14,0,0,0,.34.8,2,2,0,0,0,1.19.51l2.1.29a5.84,5.84,0,0,1,3.41,1.44,5.06,5.06,0,0,1,1.29,3.8C189.73,52.06,186.68,54,183,54Zm9.28-.15V36.48h11.8v3.8h-7.53v2.9H203V47h-6.44v3h7.53v3.8Zm14.8,0V36.48h4.27V50h7.29v3.8Z"/></svg>
