<svg id="Layer_1" data-name="Layer 1" xmlns="http://www.w3.org/2000/svg" viewBox="0 0 260 260">
  <defs>
    <style>
      .cls-1 {
        fill: rgb(25, 25, 25);
      }
    </style>
  </defs>
  <title>logo-brandmark</title><path
    class="cls-1"
    d="M130,51.3A78.7,78.7,0,1,0,208.7,130,78.7,78.7,0,0,0,130,51.3ZM104.6,79.84c4.1-4.18,9.83-6.39,16.57-6.39a22.91,22.91,0,0,1,17,7.93A26.62,26.62,0,0,1,145.11,99l0,20.2H150a3.12,3.12,0,0,1,0,6.23h-32.3a3.12,3.12,0,0,1,0-6.23h21.18l0-20.2a20.32,20.32,0,0,0-5.3-13.43,16.76,16.76,0,0,0-12.41-5.87c-5,0-9.23,1.56-12.12,4.52a15.4,15.4,0,0,0-4.15,10.92,11.4,11.4,0,0,0,2.95,8.08,9.32,9.32,0,0,0,6.81,2.87c4.95,0,7.91-2.31,7.93-6.19a4.67,4.67,0,0,0-2-4c-1.51-1-3.63-.89-5.95.19l-.1-.22c-1.47-4.32,2.82-7.88,7.65-6.12a10.24,10.24,0,0,1,1.74.88,10.87,10.87,0,0,1,4.92,9.29,11.83,11.83,0,0,1-4,9,15.15,15.15,0,0,1-10.2,3.42,15.49,15.49,0,0,1-11.31-4.79,17.74,17.74,0,0,1-4.67-12.39A21.59,21.59,0,0,1,104.6,79.84Zm43,90.84c-1.26,2.73-6,12.16-13.68,19.3h0a60,60,0,0,1-10.22-12.84,31.63,31.63,0,0,0,5.92-2.26,47.13,47.13,0,0,0,4.3,5.94A59.28,59.28,0,0,0,141.46,169,25.38,25.38,0,0,1,133.9,164c-12.11,11.4-31.28,8.28-40.69-6.63,18,4.17,25-7.42,27.74-18.06h-3.2a3.12,3.12,0,0,1,0-6.23H150a3.12,3.12,0,0,1,0,6.23h-3.2c2.73,10.64,9.76,22.23,27.74,18.06C168.28,167.4,157.59,172.1,147.57,170.68Zm-7.12-31.33H127.34c-2.11,9.3-7,20.05-18.53,23.66,0,0,15.59,7.43,25.08-9.17h0C143.39,170.44,159,163,159,163,147.5,159.4,142.56,148.64,140.45,139.35Zm89-41.71c-4.28-13.17-11.58-14.31-19.92-25.51-8.07-11.4-6.89-18.71-18.08-26.85s-17.77-4.76-31.1-8.92c-13.22-4.48-16.56-11.08-30.4-11.08s-17.17,6.6-30.39,11.08c-13.33,4.15-19.9.78-31.1,8.92s-10,15.45-18.08,26.85C42.08,83.34,34.78,84.47,30.5,97.64s1,18.39,1.14,32.36c-.17,14-5.41,19.19-1.14,32.36s11.58,14.31,19.92,25.51c8.07,11.4,6.89,18.71,18.08,26.85s17.77,4.76,31.1,8.91c13.22,4.48,16.56,11.08,30.39,11.08s17.17-6.6,30.39-11.08c13.33-4.15,19.9-.77,31.1-8.91s10-15.45,18.08-26.85c8.34-11.2,15.65-12.34,19.92-25.51s-1-18.39-1.14-32.36C228.53,116,233.78,110.81,229.5,97.64ZM130,215a85,85,0,1,1,85-85A85,85,0,0,1,130,215Z"/>
  </svg>
