<svg id="Layer_1" data-name="Layer 1" xmlns="http://www.w3.org/2000/svg" viewBox="0 0 260 320">
  <defs>
    <style>
      .cls-1 {
        fill: #191919;
      }
      .cls-2 {
        fill: #191919;
      }
    </style>
  </defs>
  <title>logo</title><path
    class="cls-1"
    d="M235.72,301.3H24.28V249.56H235.72ZM28.88,296.7H231.12V254.17H28.88Zm24.39-12.43V276l-2.46,4.29H48.07L45.61,276v8.32H41.34V266.91h4.19l3.9,7.66,3.9-7.66h4.19v17.36Zm17.86,0-.8-2.58H65l-.85,2.58H59.66L66,266.91h3.29l6.32,17.36Zm-3.39-10.78-1.56,4.63h3Zm22,7.85a6.12,6.12,0,0,1-5.63,2.93H77.7V266.91h6.44a6.12,6.12,0,0,1,5.63,2.93c.85,1.39.85,2.76.85,5.75S90.63,280,89.77,281.35Zm-3.88-9.66a2.22,2.22,0,0,0-2-1H82v9.75h1.88a2.22,2.22,0,0,0,2-1c.34-.49.46-1,.46-3.9S86.24,272.18,85.9,271.69Zm7.64,12.58V266.91h11.8v3.8H97.81v2.9h6.44v3.8H97.81v3h7.53v3.8Zm21.21,0V266.91H119v17.36Zm17.44,0-5.56-8.73v8.73h-4.27V266.91h3.73l5.56,8.73v-8.73h4.27v17.36Zm21.19,0h-7.56V266.91H153c3.61,0,5.54,2,5.54,5a4.18,4.18,0,0,1-1.9,3.44,4,4,0,0,1,2.15,3.78C158.8,282.47,156.48,284.27,153.39,284.27Zm-.63-13.53h-2.66v2.83h2.66a1.42,1.42,0,1,0,0-2.83Zm.22,6.66h-2.88v3H153a1.43,1.43,0,0,0,1.56-1.54A1.42,1.42,0,0,0,153,277.4Zm18.44,6.88-.8-2.58h-5.34l-.85,2.58H160l6.32-17.36h3.29l6.32,17.36ZM168,273.49l-1.56,4.63h3Zm15,10.92c-2.66,0-4.83-.49-6.58-2.29l2.73-2.73a5.65,5.65,0,0,0,3.88,1.22c1.68,0,2.49-.56,2.49-1.56a1.45,1.45,0,0,0-.34-1,1.94,1.94,0,0,0-1.15-.46l-2.1-.29a5.87,5.87,0,0,1-3.49-1.54,4.81,4.81,0,0,1-1.19-3.49c0-3.17,2.39-5.49,6.34-5.49a7.71,7.71,0,0,1,5.85,2.07l-2.68,2.68a4.12,4.12,0,0,0-3.29-1c-1.49,0-2.1.85-2.1,1.61a1.14,1.14,0,0,0,.34.8,2,2,0,0,0,1.19.51l2.1.29a5.84,5.84,0,0,1,3.41,1.44,5.06,5.06,0,0,1,1.29,3.8C189.73,282.49,186.68,284.42,183,284.42Zm9.28-.15V266.91h11.8v3.8h-7.53v2.9H203v3.8h-6.44v3h7.53v3.8Zm14.8,0V266.91h4.27v13.56h7.29v3.8ZM130,46.71a78.7,78.7,0,1,0,78.7,78.7A78.7,78.7,0,0,0,130,46.71ZM104.6,75.25c4.1-4.18,9.83-6.39,16.57-6.39a22.91,22.91,0,0,1,17,7.93,26.62,26.62,0,0,1,6.91,17.6l0,20.2H150a3.12,3.12,0,0,1,0,6.23h-32.3a3.12,3.12,0,0,1,0-6.23h21.18l0-20.2A20.32,20.32,0,0,0,133.58,81a16.76,16.76,0,0,0-12.41-5.87c-5,0-9.23,1.56-12.12,4.52a15.4,15.4,0,0,0-4.15,10.92,11.4,11.4,0,0,0,2.95,8.08,9.32,9.32,0,0,0,6.81,2.87c4.95,0,7.91-2.31,7.93-6.19a4.67,4.67,0,0,0-2-4c-1.51-1-3.63-.89-5.95.19l-.1-.22c-1.47-4.32,2.82-7.88,7.65-6.12a10.24,10.24,0,0,1,1.74.88,10.87,10.87,0,0,1,4.92,9.29,11.83,11.83,0,0,1-4,9,15.15,15.15,0,0,1-10.2,3.42,15.49,15.49,0,0,1-11.31-4.79,17.74,17.74,0,0,1-4.67-12.39A21.59,21.59,0,0,1,104.6,75.25Zm43,90.84c-1.26,2.73-6,12.16-13.68,19.3h0a60,60,0,0,1-10.22-12.84,31.63,31.63,0,0,0,5.92-2.26,47.13,47.13,0,0,0,4.3,5.94,59.28,59.28,0,0,0,7.57-11.83,25.38,25.38,0,0,1-7.56-4.95c-12.11,11.4-31.28,8.28-40.69-6.63,18,4.17,25-7.42,27.74-18.06h-3.2a3.12,3.12,0,0,1,0-6.23H150a3.12,3.12,0,0,1,0,6.23h-3.2c2.73,10.64,9.76,22.23,27.74,18.06C168.28,162.82,157.59,167.51,147.57,166.09Zm-7.12-31.33H127.34c-2.11,9.3-7,20.05-18.53,23.66,0,0,15.59,7.43,25.08-9.17h0c9.48,16.59,25.08,9.17,25.08,9.17C147.5,154.81,142.56,144.06,140.45,134.76Zm89-41.71c-4.28-13.17-11.58-14.31-19.92-25.51-8.07-11.4-6.89-18.71-18.08-26.85s-17.77-4.76-31.1-8.92C147.17,27.3,143.84,20.7,130,20.7S112.83,27.3,99.6,31.78c-13.33,4.15-19.9.78-31.1,8.92s-10,15.45-18.08,26.85C42.08,78.75,34.78,79.88,30.5,93.05s1,18.39,1.14,32.36c-.17,14-5.41,19.19-1.14,32.36s11.58,14.31,19.92,25.51c8.07,11.4,6.89,18.71,18.08,26.85s17.77,4.76,31.1,8.91c13.22,4.48,16.56,11.08,30.39,11.08s17.17-6.6,30.39-11.08c13.33-4.15,19.9-.77,31.1-8.91s10-15.45,18.08-26.85c8.34-11.2,15.65-12.34,19.92-25.51s-1-18.39-1.14-32.36C228.53,111.44,233.78,106.22,229.5,93.05ZM130,210.38a85,85,0,1,1,85-85A85,85,0,0,1,130,210.38Z"/><path
    class="cls-2"
    d="M221.64,50.58A7.59,7.59,0,1,1,214,58.17,7.62,7.62,0,0,1,221.64,50.58Zm0,13.47a5.88,5.88,0,1,0-5.88-5.88A5.89,5.89,0,0,0,221.64,64.05ZM218.58,62V54.15h3.21c2.16,0,2.91,1.29,2.91,2.37A2.29,2.29,0,0,1,223,58.86L225.09,62h-1.77l-1.92-2.91h-1.26V62Zm2.88-4.23c1.17,0,1.68-.36,1.68-1.2s-.54-1-1.53-1h-1.47v2.25Z"/>
  </svg>
