<svg id="Layer_1" data-name="Layer 1" xmlns="http://www.w3.org/2000/svg" xmlns:xlink="http://www.w3.org/1999/xlink" viewBox="0 0 260 260">
  <defs>
    <style>
      .cls-1 {
        fill: none;
      }
      .cls-2 {
        fill: url("#New_Pattern");
      }
    </style>
    <pattern id="New_Pattern" fill="rgba(0,0,0,0.025)" data-name="New Pattern" width="260" height="260" patternUnits="userSpaceOnUse" viewBox="0 0 260 260"><rect class="cls-1" width="260" height="260"/><path d="M232.82,271v26.29a12.36,12.36,0,0,1-12.36,12.35h-24.4a12.37,12.37,0,0,1-12.36-12.36V271.5c0-12.93,9.78-24,22.67-25A24.6,24.6,0,0,1,232.82,271Z"/><path d="M200.64,244.37l-3.39,1v-1.54a10.63,10.63,0,0,1,14.06-10,10.43,10.43,0,0,1,7.11,10v1.53l-3.39-1v-.64a7.21,7.21,0,0,0-8.88-7,7.3,7.3,0,0,0-5.51,7.19Z"/><path
      d="M289.14,35.14l1.37,14.62a.84.84,0,0,1-.84.89H259.43a.81.81,0,0,1-.84-.89L260,35.14A10.65,10.65,0,0,1,259,13.91a11.28,11.28,0,0,1,4.4.42,13.8,13.8,0,0,1,22.12,0,11.28,11.28,0,0,1,4.4-.42,10.8,10.8,0,0,1,9.38,9.33A10.64,10.64,0,0,1,289.14,35.14Z"/><path d="M290.19,53.61v3a.83.83,0,0,1-.84.84H259.06a.84.84,0,0,1-.84-.84v-3a.84.84,0,0,1,.84-.83h30.35A.8.8,0,0,1,290.19,53.61Z"/><path
      d="M322.73,161.14l-16.15-8.07a32,32,0,0,1-5.88,8.44c1.47,2.2,3.31,4.4,5.14,6.61a49.36,49.36,0,0,1-10.64-2.21,28.56,28.56,0,0,1-6.61,3.68,55.36,55.36,0,0,0,6.61,9.54,46.69,46.69,0,0,1-18.73-5.87c-17.62,2.57-43.32-4-48.46-23.13a19,19,0,0,0,9.91-1.84,26.27,26.27,0,0,1-10.64-2.2c-1.1-13.22,9.91-23.13,21.29-27.9,9.91-8.08,25.33-11.75,39.28-14.69-.73,2.94.37,10.65,4,16.52-7.71-3.3-15.05-3.67-20.19-2.57,9.91-.36,26.43,2.57,34.88,18l16.15-7.71C322.73,138.75,312.82,149.76,322.73,161.14Zm-70.85-26.43a4.41,4.41,0,0,0-8.82,0,4.41,4.41,0,0,0,8.82,0ZM259.22,123c5.87,9.91,5.14,22,1.83,33C269.13,147.19,271.33,130.3,259.22,123Z"/><path
      d="M199.82,101.18a.65.65,0,0,1,.82-.44l10.67,3.18,2.51.74,10.68,3.18a.66.66,0,0,1-.38,1.26s-10.23-2.37-12.35,2.47l-4.12,13.81c-4.36,12.37,18.85,12.45-3.1,44.87l-10.68-3.18-10.67-3.18c-.65-39.15,18.83-26.51,21.94-39.26l4.12-13.81c.86-5.21-9-8.83-9-8.83A.66.66,0,0,1,199.82,101.18Z"/><rect x="15.58" y="185.97" width="7.44" height="4.73"/><path d="M28.42,211.66c0-4.73-5.41-5.41-5.41-7.44V193.41H15.58v10.81c0,2-5.41,2.71-5.41,7.44v38.53a3.61,3.61,0,0,0,3.38,3.38H25a3.61,3.61,0,0,0,3.38-3.38Z"/><path
      d="M61.89,297a1.32,1.32,0,0,1-1.08-.1,1.19,1.19,0,0,1-.69-.76,1.45,1.45,0,0,1,.07-1.1,1.36,1.36,0,0,1,.81-.71,1.28,1.28,0,0,1,1,.09,1.45,1.45,0,0,1,.71.83,1.23,1.23,0,0,1-.09,1A1.21,1.21,0,0,1,61.89,297Zm10.43-1.5q2.57-4.33-.45-10.1a9.55,9.55,0,0,1,1.54-5.59,35.35,35.35,0,0,1,3.8-4.19q6-5.72,6.77-12.32a32.89,32.89,0,0,0-1.91-15.94,31.17,31.17,0,0,0-4.36-7.85,8.3,8.3,0,0,1-.42-5.61q.92-3.75-2.28-7.8-2.37-3-7.19-3.32a23.13,23.13,0,0,0-7.13.69l-5.37,1.76a28.59,28.59,0,0,0-8.49,4.24,1.56,1.56,0,0,0-.83.81,1.46,1.46,0,0,0-.11,1.21,1.55,1.55,0,0,0,.84,1,1.57,1.57,0,0,0,1.24.07l0,.05a49.11,49.11,0,0,1,7.95-3.68q9-3.21,14.13-1.21a5.07,5.07,0,0,1,1.86,2.07,4.67,4.67,0,0,1,.44,3.89q-.56,2.22-9.4,3.54T51.09,241.3a2.07,2.07,0,0,0,.35,1.59q.95,1.4,4.23.3a29.92,29.92,0,0,0-.29,4c0,.41-.18.35-.59-.16-.91-1.19-1.48-1.92-1.72-2.18-2.18-2.43-4.49-3.23-6.94-2.42-1.64.5-2.44,1.3-2.41,2.39s1.26,2,3.26,3c1.53.79,2.74,2.65,3.65,5.58a81.42,81.42,0,0,1,2.6,11,8.47,8.47,0,0,1-.08,4.83,11.82,11.82,0,0,0-.41,2.59q0,6.12,3,9.15,2.87,3.78,1,7.12a5.86,5.86,0,0,0-3,6.74v0c.53,1.33,1,2,1.45,2.15l2.64-.88a31.78,31.78,0,0,0,2.17,2.6,5.09,5.09,0,0,0,3.46,1.12,22.6,22.6,0,0,0,.91,3.17c.76,2.14,1.58,3.29,2.45,3.48A2.3,2.3,0,0,0,68,305.27a14.69,14.69,0,0,0,1.17-6.55A8.32,8.32,0,0,0,72.32,295.49Z"/><path
      d="M132.36,223.8s0,0,0,0c5.63,3.48,12.42,14.56,12.25,18.31a.19.19,0,0,1-.08.17.19.19,0,0,1-.19,0c-5.69-4.28-9.69-16.88-16.83-18.15-1.62-.29-3.32.25-5,0a6.89,6.89,0,0,0-1.57,0,0,0,0,0,0,0,0,0,0,0,0,0,0,0c7.42,7.14,8.71,13.73,10.77,19.44a.16.16,0,0,1-.06.18.17.17,0,0,1-.19,0c-6.72-4.8-11.38-18.28-14.26-18.37-3,.48-6.16.59-8.63,1.33,0,0,0,0,0,0s0,.07,0,.08c2.14,5.73,5.8,11.46,5.32,16,0,.07,0,.15-.08.18a.17.17,0,0,1-.2-.05c-2.68-4-9.08-10.8-9.14-14.52a0,0,0,0,0,0,0s0,0,0,0c-7,3.37-10.2,8.49-10.2,13.59,0,9.26,11.33,11.37,36.84,10.39s37.3-4.78,37.3-14c0-6.28-9.58-12.2-21-13.37,0,0,0,0,0,0s0,0,0,0c5,2.71,7.72,7.55,8.09,9.93a.15.15,0,0,1-.1.16.15.15,0,0,1-.18,0c-4.17-5.31-8.16-10.83-15.45-10.15-3.15.3-4.32-1-7.34-1.1Z"/><path d="M122.13,159l-.11,0,.11,0Z"/><path
      d="M122.35,161.28a4.28,4.28,0,0,1-4.13-2.06L100.78,159a28.32,28.32,0,0,0-10.6,1.84l-2.18.83c-2.78,1-5.94-.27-6.2-2.62l-1.27-11.09C80.26,145.57,83,143.57,86,144l2.31.37a28.46,28.46,0,0,0,10.74-.6L117,139.33a4.3,4.3,0,0,1,8.29,1,4,4,0,0,1-.25,2,5.19,5.19,0,0,1,1.82,3.43,5.55,5.55,0,0,1-.29,2.52,5.22,5.22,0,0,1,2.33,3.79,5.36,5.36,0,0,1-.64,3.19,2.61,2.61,0,0,1,.33,1.07,2.87,2.87,0,0,1-2.53,3.19,3,3,0,0,1-.74,0A4.75,4.75,0,0,1,122.35,161.28Zm-18.23-5.67a1,1,0,1,0-1.16-.92A1,1,0,0,0,104.12,155.61Zm4.09-5.74a1.55,1.55,0,0,0,1.74,1.38,1.57,1.57,0,1,0-1.74-1.38Zm6.12,5.1a1.31,1.31,0,1,0-1.45-1.15A1.29,1.29,0,0,0,114.33,155Zm4.1-.62Zm3.69,5.59a3,3,0,0,0,2-1.18l.46-.63.75.12a1.17,1.17,0,0,0,.42,0,1.62,1.62,0,0,0,1.43-1.79,1.9,1.9,0,0,0-.17-.56l-.33-.65.35-.62a4,4,0,0,0,.46-2.38,4.06,4.06,0,0,0-1.75-2.86l-.85-.58.36-1a4,4,0,0,0,.26-1.88,4.11,4.11,0,0,0-1.41-2.58l-.7-.61.33-.83a3.12,3.12,0,0,0,.16-1.39,3,3,0,1,0-5.58,2l.51.73-.55.75a3.91,3.91,0,0,0-.78,2.84,4,4,0,0,0,1.75,2.85l.86.59-.36,1a3.7,3.7,0,0,0-.26,1.88,3.37,3.37,0,0,0,.14.77l.23.66-.41.53a2.91,2.91,0,0,0-.65,2.18A3,3,0,0,0,122.12,159.94Z"/><path d="M95.4,108.1c-1.69-2.36-3.94-4.39-3.51-5.5s4.45-5.68,5.64-6.64,2.77.08,2.77.08a41.24,41.24,0,0,0,6.51,4.29c5.33,2.78,12.74,3.46,12.74,3.46s4.23,2.72-4.42,12.74c-8.1,9.39-11.59,6.54-11.59,6.54C102.35,118.58,97.88,111.58,95.4,108.1Z"/><path d="M102.24,90.36c5.68-1.22,10-3.27,13.37-4.27,3-.88,4.23,6.63,4.25,11.86s-6,2.8-10.26,1.08a71.3,71.3,0,0,1-10.46-5.89C98,91.94,98.68,91.13,102.24,90.36Z"/><path d="M105.14,74.65c1.49-2.76,10.88,5.92,7.61,9.72S99.39,90,99.39,90a1.25,1.25,0,0,1-1.47-1.19c0-.66.84-1.6,2.74-3.17C104.09,82.77,103.64,77.42,105.14,74.65Z"/><path d="M95.77,78.15c-.18-3.34,1.27-5.19,4-5.61,3.24-.5,4.31,2.72,2.73,7.23s-3.07,6.13-4.17,5.76S96,82.22,95.77,78.15Z"/><path d="M85.78,122.83c.49-3.46,1.88-8,2.26-13.85.24-3.63.95-4.39,2.3-3.48A71.75,71.75,0,0,1,97.69,115c2.33,4,5.61,9.56.44,10.31S85.34,125.89,85.78,122.83Z"/><path d="M83.1,108.12c1.29-2.12,2.1-3.08,2.74-3.18a1.25,1.25,0,0,1,1.39,1.28s-.31,10.24-3.58,14S70.41,116,72.93,114.14,80.8,111.92,83.1,108.12Z"/><path d="M70.1,109c0-2.8,1.63-4.51,5-4.82,4.06-.39,7.15.46,7.68,1.49s-.85,2.74-5.08,5S70.08,112.25,70.1,109Z"/><path
      d="M249.51,182l2.82,42.35a3.42,3.42,0,0,1-3.18,3.63l-19.87,1.32a3.41,3.41,0,0,1-3.62-3.18l-2.81-42.35a3.4,3.4,0,0,1,3.17-3.63l19.87-1.32A3.4,3.4,0,0,1,249.51,182Zm-15.74,3.25a1.4,1.4,0,0,0,1.45,1.11l2-.13a1.3,1.3,0,0,0,1.21-1.5,1.38,1.38,0,0,0-1.45-1.11l-2,.13A1.3,1.3,0,0,0,233.77,185.24ZM242,222.3a1.4,1.4,0,0,0-1.46-1.11l-4.11.27a1.3,1.3,0,0,0-1.21,1.5,1.4,1.4,0,0,0,1.46,1.11l4.11-.27A1.3,1.3,0,0,0,242,222.3Zm5.3-34.13-21.44,1.43,1.94,29.28,21.44-1.42Z"/><path
      d="M170.23,70.35l33.33-6.2A3.58,3.58,0,0,1,207.73,67l1.42,7.68,1.43,7.68a3.56,3.56,0,0,1-2.85,4.17l-33.34,6.2a5.74,5.74,0,0,1-3.91-.38l-6.17-3.06a1.91,1.91,0,0,0-1.27-.09,5.56,5.56,0,0,0-1.1.46,15.84,15.84,0,0,1-4.17,1.4c-2.6.48-10.88.28-13.59.2a1.44,1.44,0,0,1-.35.58,1.19,1.19,0,0,1-1.16.36l-.61-.18.11.59a1,1,0,0,1-.28.83,1.18,1.18,0,0,1-.92.15l-1.86-.55a1.87,1.87,0,0,1-1.31-1.67l-.55-3-.56-3a1.86,1.86,0,0,1,.62-2l1.53-1.18a1.27,1.27,0,0,1,.93-.22,1.05,1.05,0,0,1,.55.7v0l.51-.38a1.17,1.17,0,0,1,1.21-.08,1.55,1.55,0,0,1,.54.41c2.49-1,10.15-4.21,12.74-4.7a16,16,0,0,1,4.41-.19,5.42,5.42,0,0,0,1.18,0,1.88,1.88,0,0,0,1.16-.54l4.66-5.07A5.69,5.69,0,0,1,170.23,70.35Z"/><path d="M228.57,26.78h-3.39A17,17,0,0,0,208.24,9.84h-.68a17,17,0,0,0-16.94,16.94h-3.39A20.35,20.35,0,0,1,207.55,6.45h.7A20.35,20.35,0,0,1,228.57,26.78Z"/><path d="M241.29,23.73V35.78c0,2.51-1.61,4.55-3.59,4.55h-2.34v-22l3.21,1A4.49,4.49,0,0,1,241.29,23.73Z"/><path d="M177.1,19.31l3.21-1v22H178c-2,0-3.59-2-3.59-4.55v-12A4.49,4.49,0,0,1,177.1,19.31Z"/><path d="M232.82,11V37.29a12.36,12.36,0,0,1-12.36,12.35h-24.4A12.37,12.37,0,0,1,183.7,37.28V11.5c0-12.93,9.78-24,22.67-25A24.6,24.6,0,0,1,232.82,11Z"/><path d="M200.64-15.63l-3.39,1v-1.54a10.63,10.63,0,0,1,14.06-10,10.43,10.43,0,0,1,7.11,10v1.53l-3.39-1v-.64a7.21,7.21,0,0,0-8.88-7,7.3,7.3,0,0,0-5.51,7.19Z"/><path
      d="M29.14,35.14l1.37,14.62a.84.84,0,0,1-.84.89H-.57a.81.81,0,0,1-.84-.89L0,35.14a10.62,10.62,0,0,1-10.27-11.9A10.69,10.69,0,0,1-1,13.91a11.28,11.28,0,0,1,4.4.42,13.8,13.8,0,0,1,22.12,0,11.28,11.28,0,0,1,4.4-.42,10.8,10.8,0,0,1,9.38,9.33A10.64,10.64,0,0,1,29.14,35.14Z"/><path d="M30.19,53.61v3a.83.83,0,0,1-.84.84H-.94a.84.84,0,0,1-.84-.84v-3a.84.84,0,0,1,.84-.83H29.41A.8.8,0,0,1,30.19,53.61Z"/><path d="M141.76,35.45a13.93,13.93,0,1,0-13.93,13.87A13.89,13.89,0,0,0,141.76,35.45Z"/><path d="M127.54,66.37a2.6,2.6,0,0,0,3.14-2.54V54.44a2.6,2.6,0,0,0-3.14-2.54,2.67,2.67,0,0,0-2,2.65v9.18A2.66,2.66,0,0,0,127.54,66.37Z"/><path d="M127.54,19a2.6,2.6,0,0,0,3.14-2.53V7.07a2.6,2.6,0,0,0-3.14-2.53,2.66,2.66,0,0,0-2,2.64v9.18A2.66,2.66,0,0,0,127.54,19Z"/><path d="M111.38,35a2.66,2.66,0,0,0-2.64-2H99.45a2.6,2.6,0,0,0-2.53,3.14,2.66,2.66,0,0,0,2.64,2h9.29A2.59,2.59,0,0,0,111.38,35Z"/><path d="M158.75,35a2.66,2.66,0,0,0-2.64-2h-9.29a2.6,2.6,0,0,0-2.54,3.14,2.67,2.67,0,0,0,2.65,2h9.28A2.6,2.6,0,0,0,158.75,35Z"/><path d="M109.63,57.35l6.67-6.67A2.61,2.61,0,0,0,112.61,47l-6.68,6.67a2.61,2.61,0,1,0,3.7,3.69Z"/><path d="M143.06,23.86l6.74-6.68a2.61,2.61,0,0,0-3.69-3.69l-6.68,6.67a2.62,2.62,0,0,0,1.82,4.47A2.47,2.47,0,0,0,143.06,23.86Z"/><path d="M116.3,23.92a2.57,2.57,0,0,0,0-3.69l-6.67-6.68a2.62,2.62,0,0,0-3.7,3.7l6.68,6.61a2.57,2.57,0,0,0,1.81.77A3.1,3.1,0,0,0,116.3,23.92Z"/><path d="M149.8,57.35a2.57,2.57,0,0,0,0-3.69L143.13,47a2.61,2.61,0,0,0-3.7,3.69l6.68,6.67a2.53,2.53,0,0,0,1.81.78A2.81,2.81,0,0,0,149.8,57.35Z"/><path
      d="M62.73,161.14l-16.15-8.07a32,32,0,0,1-5.88,8.44c1.47,2.2,3.31,4.4,5.14,6.61a49.36,49.36,0,0,1-10.64-2.21,28.56,28.56,0,0,1-6.61,3.68,55.36,55.36,0,0,0,6.61,9.54,46.69,46.69,0,0,1-18.73-5.87c-17.62,2.57-43.32-4-48.46-23.13a19,19,0,0,0,9.91-1.84,26.27,26.27,0,0,1-10.64-2.2c-1.1-13.22,9.91-23.13,21.29-27.9,9.91-8.08,25.33-11.75,39.28-14.69-.73,2.94.37,10.65,4,16.52-7.71-3.3-15-3.67-20.19-2.57,9.91-.36,26.43,2.57,34.88,18l16.15-7.71C62.73,138.75,52.82,149.76,62.73,161.14ZM-8.12,134.71a4.47,4.47,0,0,0-4.41-4.41,4.47,4.47,0,0,0-4.41,4.41,4.24,4.24,0,0,0,4.41,4.4A4.24,4.24,0,0,0-8.12,134.71ZM-.78,123c5.87,9.91,5.14,22,1.83,33C9.13,147.19,11.33,130.3-.78,123Z"/><path
      d="M106.05,187.65a5.58,5.58,0,0,1,1.36-2.39,6.13,6.13,0,0,1,2.39-1.7,8.5,8.5,0,0,1,3.07-.34,75.14,75.14,0,0,0,15,1.7,10.92,10.92,0,0,0,6.48-3.75,18.54,18.54,0,0,0,3.76-6.14,126.09,126.09,0,0,0,0-16c0-3.41-.35-6.82-.35-10.57-.34-3.41-.34-7.16-.68-10.57-.68-8.53-1.36-17.39-2-26.94,12.61.34,25.57.34,38.19-.34a57.6,57.6,0,0,1,1,11.25,274.47,274.47,0,0,1-1,33.42,68.07,68.07,0,0,0-.68,7.51,30.05,30.05,0,0,0-.68,3.75,29.26,29.26,0,0,0-.68,3.41c-.35,1.36-.35,2.73-.69,4.09,0,1.7-.34,3.41-.34,5.12a22.49,22.49,0,0,0-.34,4.77,10.56,10.56,0,0,1,.68,3.75,16.67,16.67,0,0,1,.34,4.09v9.16a16.21,16.21,0,0,1-6.82,2.39v-.68h-2l.34,1a4.35,4.35,0,0,0-2,.34h-2v-1h-1.71v1h-3.75l-2.39-5.8a19.46,19.46,0,0,1-2.38.69,10.05,10.05,0,0,1-3.07.68,17.23,17.23,0,0,1-4.1.68l-1.36,4.09-2.73-.44v-.24H135v.68h-3.76v-1h-1.7v1.07c-1.36-.34-2.39-.34-3.41-.68a12.15,12.15,0,0,1-3.41-.68l.34-.68-1.71-.35-.34.69a41.55,41.55,0,0,1-4.77-1.71h0v-.68l-1.37-.68c-.34.34-.34.34-.34.68a13.72,13.72,0,0,1-3.07-1.71l.35-.34-1.37-.68-.34.68c-1.36-1-2.73-2-3.75-2.73-.68-.34-1-1-1.37-1.36V191.4c0-.68.35-1,.35-1.36s0-.34.34-.34A4.35,4.35,0,0,1,106.05,187.65Z"/><path d="M53.12,68.72a9.6,9.6,0,0,1,2.42-6.07,9.74,9.74,0,0,1,6.12-2.25.79.79,0,0,1,.79.84A9.55,9.55,0,0,1,60,67.31a9.73,9.73,0,0,1-6.11,2.25A.77.77,0,0,1,53.12,68.72Z"/><path d="M38.12,81.76A6.11,6.11,0,1,1,44.6,76,6.11,6.11,0,0,1,38.12,81.76Z"/><path d="M50.48,70.34a43.26,43.26,0,0,0-2.09-8.59c-.53-1.18,2-1.62,2.41-.45a47.08,47.08,0,0,1,1.28,8.94h.05a6,6,0,1,1-1.65.1Z"/><path d="M71.07,77.71a6.11,6.11,0,1,1-5.72-6.48A6.11,6.11,0,0,1,71.07,77.71Z"/><path d="M44,94.36a6.13,6.13,0,1,1,6.53-5.76A6.22,6.22,0,0,1,44,94.36Z"/><path d="M63.71,89.49A6.11,6.11,0,1,1,58,83,6.18,6.18,0,0,1,63.71,89.49Z"/><path d="M56.3,101.21a6.11,6.11,0,1,1-5.71-6.48A6.1,6.1,0,0,1,56.3,101.21Z"/><path
      d="M100.85,205.72h0a22.85,22.85,0,0,0-5.24-2.27c-3.22-1.11-6.54-2.26-7.39-4.37a3.83,3.83,0,0,1,.4-3.23c1.62-4.9.67-9.5-2.68-12.93-4.51-4.65-12.72-6.55-19.5-4.52a13.57,13.57,0,0,0-10,10.79,4.48,4.48,0,0,1-1.33,3.33c-2.34,2.25-7.36,2.13-11.78,2-3.85-.09-6.93-.16-7.84,1.26l0,.06c-1.41,2.19-1.63,3.08,1.47,7.19,3.28,4.36,6.33,7.35,13.15,3,9-6,14.42-2.16,21.9,3.21a79.52,79.52,0,0,0,11.61,7.29,15.55,15.55,0,0,0,6.92,1.66c5.58,0,10.2-3.17,11.88-6.45C103.68,209.23,103.09,206.92,100.85,205.72Zm1,5.74c-2.22,4.34-9.88,8.44-17.92,4.5a78.74,78.74,0,0,1-11.52-7.24c-4.91-3.52-8.94-6.43-13.67-6.43-2.67,0-5.57.94-9,3.21-6.35,4.05-9.09,1.37-12.27-2.85-2.26-3-2.63-4.05-2.12-5.24a4.59,4.59,0,0,0,.15.44h0a12.11,12.11,0,0,0,2.1,3.15l.07.09c.16.18.32.37.5.56l.32.36.64.68.65.67.37.36c.31.32.64.64,1,1l.07.06c2.73,2.62,6.7.57,11.6-2.36,5.92-3.55,13.19-1.43,22.89,6.7.72.53,1.41,1,2.1,1.5l.64.43c.47.32.94.62,1.39.91l.71.43c.44.26.87.51,1.3.74l.64.35c.51.27,1,.51,1.5.74l.34.16c.6.27,1.19.5,1.76.7l.48.15c.41.14.82.26,1.22.36l.58.14c.37.08.73.15,1.08.2L90,216c.38,0,.76.06,1.14.07l.32,0h.11l.31,0c.3,0,.59,0,.88-.06l.38,0a8.28,8.28,0,0,0,.84-.16l.31-.06c.36-.1.72-.21,1.08-.34l.21-.09c.29-.12.57-.24.85-.38l.34-.18.72-.42.31-.2c.33-.23.65-.46,1-.73s.59-.49.86-.74c.12-.1.22-.21.33-.31l.38-.37.39-.4c.07-.07.13-.15.19-.22a6.79,6.79,0,0,0,1.3-2l.07-.18.09-.34s0-.06,0-.09A4.56,4.56,0,0,1,101.8,211.46Z"/><path
      d="M272.9,75.8l-2.56-3.13a1.4,1.4,0,0,0-1.52-.28l-8.62,5.42a18.55,18.55,0,1,0-.92,5l6.15,8.12a1.4,1.4,0,0,0,1.52.28l3.51-2a1.36,1.36,0,0,0,.62-.83l2.11-11.54A1.33,1.33,0,0,0,272.9,75.8Zm-20.56,3.14a10.8,10.8,0,1,1-8.68-12.57A10.73,10.73,0,0,1,252.34,78.94Z"/><path d="M205.83,181.05l-24.38,29.86-1.35,1.66-7.92,9.73.83.67,4.13,3.38a75.18,75.18,0,0,1,6.76-10.67l6.65,5.43.68-.84a109.57,109.57,0,0,0,11.43-16.74c3.81-7.16,6.31-14.95,3.86-20.82Z"/><path
      d="M12.9,75.8l-2.56-3.13a1.4,1.4,0,0,0-1.52-.28L.2,77.81a18.58,18.58,0,0,0-15.15-19A18.58,18.58,0,0,0-36.51,73.66,18.59,18.59,0,0,0-21.62,95.22,18.56,18.56,0,0,0-.72,82.79l6.15,8.12A1.4,1.4,0,0,0,7,91.19l3.51-2a1.36,1.36,0,0,0,.62-.83L13.19,76.8A1.33,1.33,0,0,0,12.9,75.8ZM-7.66,78.94a10.73,10.73,0,0,1-12.57,8.69,10.74,10.74,0,0,1-8.68-12.58,10.74,10.74,0,0,1,12.57-8.68A10.73,10.73,0,0,1-7.66,78.94Z"/><path
      d="M61.89,37a1.32,1.32,0,0,1-1.08-.1,1.19,1.19,0,0,1-.69-.76,1.45,1.45,0,0,1,.07-1.1,1.36,1.36,0,0,1,.81-.71,1.28,1.28,0,0,1,1,.09,1.45,1.45,0,0,1,.71.83,1.23,1.23,0,0,1-.09,1A1.21,1.21,0,0,1,61.89,37Zm10.43-1.5q2.57-4.34-.45-10.1a9.55,9.55,0,0,1,1.54-5.59,35.35,35.35,0,0,1,3.8-4.19Q83.17,9.9,84,3.29a32.89,32.89,0,0,0-1.91-15.94,31.17,31.17,0,0,0-4.36-7.85,8.3,8.3,0,0,1-.42-5.61q.92-3.75-2.28-7.8-2.37-3-7.19-3.32a23.13,23.13,0,0,0-7.13.69l-5.37,1.76a28.59,28.59,0,0,0-8.49,4.24,1.56,1.56,0,0,0-.83.81,1.46,1.46,0,0,0-.11,1.21,1.55,1.55,0,0,0,.84.95A1.57,1.57,0,0,0,48-27.5l0,.05a49.11,49.11,0,0,1,7.95-3.68q9-3.21,14.13-1.21a5.07,5.07,0,0,1,1.86,2.07,4.67,4.67,0,0,1,.44,3.89q-.56,2.22-9.4,3.54T51.09-18.7a2.07,2.07,0,0,0,.35,1.59q.95,1.39,4.23.3a29.92,29.92,0,0,0-.29,4c0,.41-.18.35-.59-.16-.91-1.19-1.48-1.92-1.72-2.18-2.18-2.43-4.49-3.23-6.94-2.42-1.64.5-2.44,1.3-2.41,2.39s1.26,2,3.26,3c1.53.79,2.74,2.65,3.65,5.58a81.42,81.42,0,0,1,2.6,11,8.47,8.47,0,0,1-.08,4.83,11.82,11.82,0,0,0-.41,2.59q0,6.12,3,9.15,2.87,3.78,1,7.12a5.86,5.86,0,0,0-3,6.74v0c.53,1.33,1,2,1.45,2.15l2.64-.88a31.78,31.78,0,0,0,2.17,2.6,5.09,5.09,0,0,0,3.46,1.12,22.6,22.6,0,0,0,.91,3.17c.76,2.14,1.58,3.29,2.45,3.48A2.3,2.3,0,0,0,68,45.27a14.69,14.69,0,0,0,1.17-6.55A8.32,8.32,0,0,0,72.32,35.49Z"/></pattern>
  </defs>
  <title>Artboard 22</title><rect class="cls-2" width="260" height="260"/></svg>
